<mxfile host="app.diagrams.net" agent="Mozilla/5.0 (Windows NT 10.0; Win64; x64) AppleWebKit/537.36 (KHTML, like Gecko) Chrome/133.0.0.0 Safari/537.36" version="25.0.1">
  <diagram name="ページ1" id="gJQ-ZRLqFh1WBXgoUbh7">
    <mxGraphModel dx="1230" dy="1110" grid="1" gridSize="10" guides="1" tooltips="1" connect="1" arrows="1" fold="1" page="1" pageScale="1" pageWidth="1169" pageHeight="827" math="0" shadow="0">
      <root>
        <mxCell id="0" />
        <mxCell id="1" parent="0" />
        <mxCell id="LdfHaSXWYvCmAlE7zLnH-1" value="AWS Cloud" style="points=[[0,0],[0.25,0],[0.5,0],[0.75,0],[1,0],[1,0.25],[1,0.5],[1,0.75],[1,1],[0.75,1],[0.5,1],[0.25,1],[0,1],[0,0.75],[0,0.5],[0,0.25]];outlineConnect=0;gradientColor=none;html=1;whiteSpace=wrap;fontSize=12;fontStyle=0;container=1;pointerEvents=0;collapsible=0;recursiveResize=0;shape=mxgraph.aws4.group;grIcon=mxgraph.aws4.group_aws_cloud_alt;strokeColor=#232F3E;fillColor=none;verticalAlign=top;align=left;spacingLeft=30;fontColor=#232F3E;dashed=0;" vertex="1" parent="1">
          <mxGeometry x="80" y="80" width="1000" height="520" as="geometry" />
        </mxCell>
        <mxCell id="LdfHaSXWYvCmAlE7zLnH-19" value="" style="edgeStyle=orthogonalEdgeStyle;rounded=0;orthogonalLoop=1;jettySize=auto;html=1;" edge="1" parent="LdfHaSXWYvCmAlE7zLnH-1" source="LdfHaSXWYvCmAlE7zLnH-13" target="LdfHaSXWYvCmAlE7zLnH-12">
          <mxGeometry relative="1" as="geometry" />
        </mxCell>
        <mxCell id="LdfHaSXWYvCmAlE7zLnH-18" value="" style="edgeStyle=orthogonalEdgeStyle;rounded=0;orthogonalLoop=1;jettySize=auto;html=1;" edge="1" parent="LdfHaSXWYvCmAlE7zLnH-1" source="LdfHaSXWYvCmAlE7zLnH-14" target="LdfHaSXWYvCmAlE7zLnH-13">
          <mxGeometry relative="1" as="geometry" />
        </mxCell>
        <mxCell id="LdfHaSXWYvCmAlE7zLnH-17" value="" style="edgeStyle=orthogonalEdgeStyle;rounded=0;orthogonalLoop=1;jettySize=auto;html=1;" edge="1" parent="LdfHaSXWYvCmAlE7zLnH-1" source="LdfHaSXWYvCmAlE7zLnH-15" target="LdfHaSXWYvCmAlE7zLnH-14">
          <mxGeometry relative="1" as="geometry" />
        </mxCell>
        <mxCell id="LdfHaSXWYvCmAlE7zLnH-23" value="" style="edgeStyle=orthogonalEdgeStyle;rounded=0;orthogonalLoop=1;jettySize=auto;html=1;" edge="1" parent="LdfHaSXWYvCmAlE7zLnH-1" source="LdfHaSXWYvCmAlE7zLnH-16" target="LdfHaSXWYvCmAlE7zLnH-12">
          <mxGeometry relative="1" as="geometry" />
        </mxCell>
        <mxCell id="LdfHaSXWYvCmAlE7zLnH-29" value="" style="group" vertex="1" connectable="0" parent="LdfHaSXWYvCmAlE7zLnH-1">
          <mxGeometry x="880" y="200" width="80" height="120" as="geometry" />
        </mxCell>
        <mxCell id="LdfHaSXWYvCmAlE7zLnH-11" value="" style="sketch=0;points=[[0,0,0],[0.25,0,0],[0.5,0,0],[0.75,0,0],[1,0,0],[0,1,0],[0.25,1,0],[0.5,1,0],[0.75,1,0],[1,1,0],[0,0.25,0],[0,0.5,0],[0,0.75,0],[1,0.25,0],[1,0.5,0],[1,0.75,0]];outlineConnect=0;fontColor=#232F3E;fillColor=#E7157B;strokeColor=#ffffff;dashed=0;verticalLabelPosition=bottom;verticalAlign=top;align=center;html=1;fontSize=12;fontStyle=0;aspect=fixed;shape=mxgraph.aws4.resourceIcon;resIcon=mxgraph.aws4.eventbridge;" vertex="1" parent="LdfHaSXWYvCmAlE7zLnH-29">
          <mxGeometry width="80" height="80" as="geometry" />
        </mxCell>
        <mxCell id="LdfHaSXWYvCmAlE7zLnH-25" value="EventBridge" style="text;strokeColor=none;fillColor=none;html=1;fontSize=12;fontStyle=0;verticalAlign=middle;align=center;" vertex="1" parent="LdfHaSXWYvCmAlE7zLnH-29">
          <mxGeometry y="80" width="80" height="40" as="geometry" />
        </mxCell>
        <mxCell id="LdfHaSXWYvCmAlE7zLnH-30" value="" style="group" vertex="1" connectable="0" parent="LdfHaSXWYvCmAlE7zLnH-1">
          <mxGeometry x="720" y="200" width="80" height="120" as="geometry" />
        </mxCell>
        <mxCell id="LdfHaSXWYvCmAlE7zLnH-16" value="" style="sketch=0;points=[[0,0,0],[0.25,0,0],[0.5,0,0],[0.75,0,0],[1,0,0],[0,1,0],[0.25,1,0],[0.5,1,0],[0.75,1,0],[1,1,0],[0,0.25,0],[0,0.5,0],[0,0.75,0],[1,0.25,0],[1,0.5,0],[1,0.75,0]];outlineConnect=0;fontColor=#232F3E;fillColor=#ED7100;strokeColor=#ffffff;dashed=0;verticalLabelPosition=bottom;verticalAlign=top;align=center;html=1;fontSize=12;fontStyle=0;aspect=fixed;shape=mxgraph.aws4.resourceIcon;resIcon=mxgraph.aws4.lambda;" vertex="1" parent="LdfHaSXWYvCmAlE7zLnH-30">
          <mxGeometry width="80" height="80" as="geometry" />
        </mxCell>
        <mxCell id="LdfHaSXWYvCmAlE7zLnH-24" value="get-whatsnew" style="text;strokeColor=none;fillColor=none;html=1;fontSize=12;fontStyle=0;verticalAlign=middle;align=center;" vertex="1" parent="LdfHaSXWYvCmAlE7zLnH-30">
          <mxGeometry y="80" width="80" height="40" as="geometry" />
        </mxCell>
        <mxCell id="LdfHaSXWYvCmAlE7zLnH-31" value="" style="group" vertex="1" connectable="0" parent="LdfHaSXWYvCmAlE7zLnH-1">
          <mxGeometry x="480" y="200" width="80" height="120" as="geometry" />
        </mxCell>
        <mxCell id="LdfHaSXWYvCmAlE7zLnH-12" value="" style="sketch=0;points=[[0,0,0],[0.25,0,0],[0.5,0,0],[0.75,0,0],[1,0,0],[0,1,0],[0.25,1,0],[0.5,1,0],[0.75,1,0],[1,1,0],[0,0.25,0],[0,0.5,0],[0,0.75,0],[1,0.25,0],[1,0.5,0],[1,0.75,0]];outlineConnect=0;fontColor=#232F3E;fillColor=#C925D1;strokeColor=#ffffff;dashed=0;verticalLabelPosition=bottom;verticalAlign=top;align=center;html=1;fontSize=12;fontStyle=0;aspect=fixed;shape=mxgraph.aws4.resourceIcon;resIcon=mxgraph.aws4.dynamodb;" vertex="1" parent="LdfHaSXWYvCmAlE7zLnH-31">
          <mxGeometry width="80" height="80" as="geometry" />
        </mxCell>
        <mxCell id="LdfHaSXWYvCmAlE7zLnH-26" value="DynamoDB" style="text;strokeColor=none;fillColor=none;html=1;fontSize=12;fontStyle=0;verticalAlign=middle;align=center;" vertex="1" parent="LdfHaSXWYvCmAlE7zLnH-31">
          <mxGeometry y="80" width="80" height="40" as="geometry" />
        </mxCell>
        <mxCell id="LdfHaSXWYvCmAlE7zLnH-32" value="" style="group" vertex="1" connectable="0" parent="LdfHaSXWYvCmAlE7zLnH-1">
          <mxGeometry x="320" y="200" width="80" height="120" as="geometry" />
        </mxCell>
        <mxCell id="LdfHaSXWYvCmAlE7zLnH-13" value="" style="sketch=0;points=[[0,0,0],[0.25,0,0],[0.5,0,0],[0.75,0,0],[1,0,0],[0,1,0],[0.25,1,0],[0.5,1,0],[0.75,1,0],[1,1,0],[0,0.25,0],[0,0.5,0],[0,0.75,0],[1,0.25,0],[1,0.5,0],[1,0.75,0]];outlineConnect=0;fontColor=#232F3E;fillColor=#ED7100;strokeColor=#ffffff;dashed=0;verticalLabelPosition=bottom;verticalAlign=top;align=center;html=1;fontSize=12;fontStyle=0;aspect=fixed;shape=mxgraph.aws4.resourceIcon;resIcon=mxgraph.aws4.lambda;" vertex="1" parent="LdfHaSXWYvCmAlE7zLnH-32">
          <mxGeometry width="80" height="80" as="geometry" />
        </mxCell>
        <mxCell id="LdfHaSXWYvCmAlE7zLnH-21" value="scan-dynamodb" style="text;strokeColor=none;fillColor=none;html=1;fontSize=12;fontStyle=0;verticalAlign=middle;align=center;" vertex="1" parent="LdfHaSXWYvCmAlE7zLnH-32">
          <mxGeometry y="80" width="80" height="40" as="geometry" />
        </mxCell>
        <mxCell id="LdfHaSXWYvCmAlE7zLnH-33" value="" style="group" vertex="1" connectable="0" parent="LdfHaSXWYvCmAlE7zLnH-1">
          <mxGeometry x="160" y="200" width="80" height="120" as="geometry" />
        </mxCell>
        <mxCell id="LdfHaSXWYvCmAlE7zLnH-14" value="" style="sketch=0;points=[[0,0,0],[0.25,0,0],[0.5,0,0],[0.75,0,0],[1,0,0],[0,1,0],[0.25,1,0],[0.5,1,0],[0.75,1,0],[1,1,0],[0,0.25,0],[0,0.5,0],[0,0.75,0],[1,0.25,0],[1,0.5,0],[1,0.75,0]];outlineConnect=0;fontColor=#232F3E;fillColor=#E7157B;strokeColor=#ffffff;dashed=0;verticalLabelPosition=bottom;verticalAlign=top;align=center;html=1;fontSize=12;fontStyle=0;aspect=fixed;shape=mxgraph.aws4.resourceIcon;resIcon=mxgraph.aws4.api_gateway;" vertex="1" parent="LdfHaSXWYvCmAlE7zLnH-33">
          <mxGeometry width="80" height="80" as="geometry" />
        </mxCell>
        <mxCell id="LdfHaSXWYvCmAlE7zLnH-20" value="API Gateway" style="text;strokeColor=none;fillColor=none;html=1;fontSize=12;fontStyle=0;verticalAlign=middle;align=center;" vertex="1" parent="LdfHaSXWYvCmAlE7zLnH-33">
          <mxGeometry y="80" width="80" height="40" as="geometry" />
        </mxCell>
        <mxCell id="LdfHaSXWYvCmAlE7zLnH-34" value="" style="group" vertex="1" connectable="0" parent="LdfHaSXWYvCmAlE7zLnH-1">
          <mxGeometry x="20" y="200" width="80" height="120" as="geometry" />
        </mxCell>
        <mxCell id="LdfHaSXWYvCmAlE7zLnH-15" value="" style="verticalLabelPosition=bottom;verticalAlign=top;html=1;shadow=0;dashed=0;strokeWidth=1;shape=mxgraph.android.phone2;" vertex="1" parent="LdfHaSXWYvCmAlE7zLnH-34">
          <mxGeometry x="20" width="40" height="80" as="geometry" />
        </mxCell>
        <mxCell id="LdfHaSXWYvCmAlE7zLnH-27" value="Android App" style="text;strokeColor=none;fillColor=none;html=1;fontSize=12;fontStyle=0;verticalAlign=middle;align=center;" vertex="1" parent="LdfHaSXWYvCmAlE7zLnH-34">
          <mxGeometry y="80" width="80" height="40" as="geometry" />
        </mxCell>
        <mxCell id="LdfHaSXWYvCmAlE7zLnH-36" value="" style="group" vertex="1" connectable="0" parent="LdfHaSXWYvCmAlE7zLnH-1">
          <mxGeometry x="600" y="40" width="80" height="120" as="geometry" />
        </mxCell>
        <mxCell id="LdfHaSXWYvCmAlE7zLnH-28" value="" style="sketch=0;points=[[0,0,0],[0.25,0,0],[0.5,0,0],[0.75,0,0],[1,0,0],[0,1,0],[0.25,1,0],[0.5,1,0],[0.75,1,0],[1,1,0],[0,0.25,0],[0,0.5,0],[0,0.75,0],[1,0.25,0],[1,0.5,0],[1,0.75,0]];outlineConnect=0;fontColor=#232F3E;fillColor=#01A88D;strokeColor=#ffffff;dashed=0;verticalLabelPosition=bottom;verticalAlign=top;align=center;html=1;fontSize=12;fontStyle=0;aspect=fixed;shape=mxgraph.aws4.resourceIcon;resIcon=mxgraph.aws4.translate;" vertex="1" parent="LdfHaSXWYvCmAlE7zLnH-36">
          <mxGeometry width="80" height="80" as="geometry" />
        </mxCell>
        <mxCell id="LdfHaSXWYvCmAlE7zLnH-35" value="translate" style="text;strokeColor=none;fillColor=none;html=1;fontSize=12;fontStyle=0;verticalAlign=middle;align=center;" vertex="1" parent="LdfHaSXWYvCmAlE7zLnH-36">
          <mxGeometry y="80" width="80" height="40" as="geometry" />
        </mxCell>
        <mxCell id="LdfHaSXWYvCmAlE7zLnH-39" value="" style="edgeStyle=orthogonalEdgeStyle;rounded=0;orthogonalLoop=1;jettySize=auto;html=1;" edge="1" parent="LdfHaSXWYvCmAlE7zLnH-1" source="LdfHaSXWYvCmAlE7zLnH-11" target="LdfHaSXWYvCmAlE7zLnH-16">
          <mxGeometry relative="1" as="geometry" />
        </mxCell>
        <mxCell id="LdfHaSXWYvCmAlE7zLnH-40" value="" style="edgeStyle=orthogonalEdgeStyle;rounded=0;orthogonalLoop=1;jettySize=auto;html=1;exitX=0.5;exitY=0;exitDx=0;exitDy=0;exitPerimeter=0;entryX=1;entryY=0.5;entryDx=0;entryDy=0;entryPerimeter=0;startArrow=classic;startFill=1;" edge="1" parent="LdfHaSXWYvCmAlE7zLnH-1" source="LdfHaSXWYvCmAlE7zLnH-16" target="LdfHaSXWYvCmAlE7zLnH-28">
          <mxGeometry relative="1" as="geometry">
            <Array as="points" />
          </mxGeometry>
        </mxCell>
      </root>
    </mxGraphModel>
  </diagram>
</mxfile>
